<mxfile host="app.diagrams.net" agent="Mozilla/5.0 (Macintosh; Intel Mac OS X 10_15_7) AppleWebKit/537.36 (KHTML, like Gecko) Chrome/140.0.0.0 Safari/537.36" version="28.2.5">
  <diagram name="Page-1" id="VZM0wCxLeRSE55PWeWEQ">
    <mxGraphModel dx="1084" dy="699" grid="1" gridSize="10" guides="1" tooltips="1" connect="1" arrows="1" fold="1" page="1" pageScale="1" pageWidth="850" pageHeight="1100" math="0" shadow="0">
      <root>
        <mxCell id="0" />
        <mxCell id="1" parent="0" />
        <mxCell id="lORc25aRMC__WhGPj0ZI-16" value="Availability Zone A" style="fillColor=none;strokeColor=#147EBA;dashed=1;verticalAlign=top;fontStyle=0;fontColor=#147EBA;whiteSpace=wrap;html=1;movable=1;resizable=1;rotatable=1;deletable=1;editable=1;locked=0;connectable=1;" vertex="1" parent="1">
          <mxGeometry x="315" y="40" width="510" height="260" as="geometry" />
        </mxCell>
        <mxCell id="lORc25aRMC__WhGPj0ZI-1" value="users" style="sketch=0;outlineConnect=0;gradientColor=none;fontColor=#545B64;strokeColor=none;fillColor=#879196;dashed=0;verticalLabelPosition=bottom;verticalAlign=top;align=center;html=1;fontSize=12;fontStyle=0;aspect=fixed;shape=mxgraph.aws4.illustration_users;pointerEvents=1;movable=0;resizable=0;rotatable=0;deletable=0;editable=0;locked=1;connectable=0;" vertex="1" parent="1">
          <mxGeometry x="40" y="250" width="60" height="60" as="geometry" />
        </mxCell>
        <mxCell id="lORc25aRMC__WhGPj0ZI-4" value="" style="group;movable=0;resizable=0;rotatable=0;deletable=0;editable=0;locked=1;connectable=0;" vertex="1" connectable="0" parent="1">
          <mxGeometry x="138" y="230" width="60" height="77" as="geometry" />
        </mxCell>
        <mxCell id="lORc25aRMC__WhGPj0ZI-2" value="" style="sketch=0;points=[[0,0,0],[0.25,0,0],[0.5,0,0],[0.75,0,0],[1,0,0],[0,1,0],[0.25,1,0],[0.5,1,0],[0.75,1,0],[1,1,0],[0,0.25,0],[0,0.5,0],[0,0.75,0],[1,0.25,0],[1,0.5,0],[1,0.75,0]];outlineConnect=0;fontColor=#232F3E;fillColor=#8C4FFF;strokeColor=#ffffff;dashed=0;verticalLabelPosition=bottom;verticalAlign=top;align=center;html=1;fontSize=12;fontStyle=0;aspect=fixed;shape=mxgraph.aws4.resourceIcon;resIcon=mxgraph.aws4.route_53;movable=0;resizable=0;rotatable=0;deletable=0;editable=0;locked=1;connectable=0;" vertex="1" parent="lORc25aRMC__WhGPj0ZI-4">
          <mxGeometry x="3" y="23" width="54" height="54" as="geometry" />
        </mxCell>
        <mxCell id="lORc25aRMC__WhGPj0ZI-3" value="&lt;font style=&quot;color: light-dark(rgb(140, 79, 255), rgb(237, 237, 237));&quot;&gt;&lt;b&gt;Route 53&lt;/b&gt;&lt;/font&gt;" style="text;html=1;align=center;verticalAlign=middle;whiteSpace=wrap;rounded=0;movable=0;resizable=0;rotatable=0;deletable=0;editable=0;locked=1;connectable=0;" vertex="1" parent="lORc25aRMC__WhGPj0ZI-4">
          <mxGeometry width="60" height="30" as="geometry" />
        </mxCell>
        <mxCell id="lORc25aRMC__WhGPj0ZI-5" style="edgeStyle=orthogonalEdgeStyle;rounded=0;orthogonalLoop=1;jettySize=auto;html=1;entryX=0;entryY=0.5;entryDx=0;entryDy=0;entryPerimeter=0;movable=0;resizable=0;rotatable=0;deletable=0;editable=0;locked=1;connectable=0;" edge="1" parent="1" source="lORc25aRMC__WhGPj0ZI-1" target="lORc25aRMC__WhGPj0ZI-2">
          <mxGeometry relative="1" as="geometry" />
        </mxCell>
        <mxCell id="lORc25aRMC__WhGPj0ZI-8" value="" style="group;movable=0;resizable=0;rotatable=0;deletable=0;editable=0;locked=1;connectable=0;" vertex="1" connectable="0" parent="1">
          <mxGeometry x="224" y="230" width="60" height="77" as="geometry" />
        </mxCell>
        <mxCell id="lORc25aRMC__WhGPj0ZI-6" value="" style="sketch=0;points=[[0,0,0],[0.25,0,0],[0.5,0,0],[0.75,0,0],[1,0,0],[0,1,0],[0.25,1,0],[0.5,1,0],[0.75,1,0],[1,1,0],[0,0.25,0],[0,0.5,0],[0,0.75,0],[1,0.25,0],[1,0.5,0],[1,0.75,0]];outlineConnect=0;fontColor=#232F3E;fillColor=#8C4FFF;strokeColor=#ffffff;dashed=0;verticalLabelPosition=bottom;verticalAlign=top;align=center;html=1;fontSize=12;fontStyle=0;aspect=fixed;shape=mxgraph.aws4.resourceIcon;resIcon=mxgraph.aws4.cloudfront;movable=0;resizable=0;rotatable=0;deletable=0;editable=0;locked=1;connectable=0;" vertex="1" parent="lORc25aRMC__WhGPj0ZI-8">
          <mxGeometry x="3" y="23" width="54" height="54" as="geometry" />
        </mxCell>
        <mxCell id="lORc25aRMC__WhGPj0ZI-7" value="&lt;font style=&quot;color: light-dark(rgb(140, 79, 255), rgb(237, 237, 237));&quot;&gt;&lt;b&gt;CloudFront&lt;/b&gt;&lt;/font&gt;" style="text;html=1;align=center;verticalAlign=middle;whiteSpace=wrap;rounded=0;movable=0;resizable=0;rotatable=0;deletable=0;editable=0;locked=1;connectable=0;" vertex="1" parent="lORc25aRMC__WhGPj0ZI-8">
          <mxGeometry width="60" height="30" as="geometry" />
        </mxCell>
        <mxCell id="lORc25aRMC__WhGPj0ZI-9" style="edgeStyle=orthogonalEdgeStyle;rounded=0;orthogonalLoop=1;jettySize=auto;html=1;exitX=1;exitY=0.5;exitDx=0;exitDy=0;exitPerimeter=0;entryX=0;entryY=0.5;entryDx=0;entryDy=0;entryPerimeter=0;movable=0;resizable=0;rotatable=0;deletable=0;editable=0;locked=1;connectable=0;" edge="1" parent="1" source="lORc25aRMC__WhGPj0ZI-2" target="lORc25aRMC__WhGPj0ZI-6">
          <mxGeometry relative="1" as="geometry" />
        </mxCell>
        <mxCell id="lORc25aRMC__WhGPj0ZI-14" value="VPC" style="points=[[0,0],[0.25,0],[0.5,0],[0.75,0],[1,0],[1,0.25],[1,0.5],[1,0.75],[1,1],[0.75,1],[0.5,1],[0.25,1],[0,1],[0,0.75],[0,0.5],[0,0.25]];outlineConnect=0;gradientColor=none;html=1;whiteSpace=wrap;fontSize=12;fontStyle=0;container=0;pointerEvents=0;collapsible=0;recursiveResize=0;shape=mxgraph.aws4.group;grIcon=mxgraph.aws4.group_vpc2;strokeColor=#8C4FFF;fillColor=none;verticalAlign=top;align=left;spacingLeft=30;fontColor=#AAB7B8;dashed=0;movable=0;resizable=0;rotatable=0;deletable=0;editable=0;locked=1;connectable=0;" vertex="1" parent="1">
          <mxGeometry x="300" y="20" width="540" height="570" as="geometry" />
        </mxCell>
        <mxCell id="lORc25aRMC__WhGPj0ZI-17" value="Availability Zone B" style="fillColor=none;strokeColor=#147EBA;dashed=1;verticalAlign=top;fontStyle=0;fontColor=#147EBA;whiteSpace=wrap;html=1;movable=0;resizable=0;rotatable=0;deletable=0;editable=0;locked=1;connectable=0;" vertex="1" parent="1">
          <mxGeometry x="315" y="310" width="510" height="260" as="geometry" />
        </mxCell>
        <mxCell id="lORc25aRMC__WhGPj0ZI-15" value="Public subnet" style="points=[[0,0],[0.25,0],[0.5,0],[0.75,0],[1,0],[1,0.25],[1,0.5],[1,0.75],[1,1],[0.75,1],[0.5,1],[0.25,1],[0,1],[0,0.75],[0,0.5],[0,0.25]];outlineConnect=0;gradientColor=none;html=1;whiteSpace=wrap;fontSize=12;fontStyle=0;container=1;pointerEvents=0;collapsible=0;recursiveResize=0;shape=mxgraph.aws4.group;grIcon=mxgraph.aws4.group_security_group;grStroke=0;strokeColor=#7AA116;fillColor=#F2F6E8;verticalAlign=top;align=left;spacingLeft=30;fontColor=#248814;dashed=0;movable=0;resizable=0;rotatable=0;deletable=0;editable=0;locked=1;connectable=0;" vertex="1" parent="1">
          <mxGeometry x="329" y="59" width="221" height="231" as="geometry" />
        </mxCell>
        <mxCell id="lORc25aRMC__WhGPj0ZI-44" value="Public subnet" style="points=[[0,0],[0.25,0],[0.5,0],[0.75,0],[1,0],[1,0.25],[1,0.5],[1,0.75],[1,1],[0.75,1],[0.5,1],[0.25,1],[0,1],[0,0.75],[0,0.5],[0,0.25]];outlineConnect=0;gradientColor=none;html=1;whiteSpace=wrap;fontSize=12;fontStyle=0;container=1;pointerEvents=0;collapsible=0;recursiveResize=0;shape=mxgraph.aws4.group;grIcon=mxgraph.aws4.group_security_group;grStroke=0;strokeColor=#7AA116;fillColor=#F2F6E8;verticalAlign=top;align=left;spacingLeft=30;fontColor=#248814;dashed=0;movable=0;resizable=0;rotatable=0;deletable=0;editable=0;locked=1;connectable=0;" vertex="1" parent="1">
          <mxGeometry x="329" y="330" width="221" height="230" as="geometry" />
        </mxCell>
        <mxCell id="lORc25aRMC__WhGPj0ZI-56" value="" style="fillColor=none;strokeColor=#DD3522;verticalAlign=top;fontStyle=0;fontColor=#DD3522;whiteSpace=wrap;html=1;movable=1;resizable=1;rotatable=1;deletable=1;editable=1;locked=0;connectable=1;" vertex="1" parent="1">
          <mxGeometry x="340" y="164" width="200" height="314" as="geometry" />
        </mxCell>
        <mxCell id="lORc25aRMC__WhGPj0ZI-49" value="" style="group;movable=1;resizable=1;rotatable=1;deletable=1;editable=1;locked=0;connectable=1;" vertex="1" connectable="0" parent="1">
          <mxGeometry x="409.5" y="80" width="60" height="74" as="geometry" />
        </mxCell>
        <mxCell id="lORc25aRMC__WhGPj0ZI-50" value="&lt;font style=&quot;color: light-dark(rgb(140, 79, 255), rgb(237, 237, 237)); font-size: 10px;&quot;&gt;&lt;b&gt;NAT GW&lt;/b&gt;&lt;/font&gt;" style="text;html=1;align=center;verticalAlign=middle;whiteSpace=wrap;rounded=0;movable=0;resizable=0;rotatable=0;deletable=0;editable=0;locked=1;connectable=0;" vertex="1" parent="lORc25aRMC__WhGPj0ZI-49">
          <mxGeometry width="60" height="29" as="geometry" />
        </mxCell>
        <mxCell id="lORc25aRMC__WhGPj0ZI-51" value="" style="sketch=0;outlineConnect=0;fontColor=#232F3E;gradientColor=none;fillColor=#8C4FFF;strokeColor=none;dashed=0;verticalLabelPosition=bottom;verticalAlign=top;align=center;html=1;fontSize=12;fontStyle=0;aspect=fixed;pointerEvents=1;shape=mxgraph.aws4.nat_gateway;movable=0;resizable=0;rotatable=0;deletable=0;editable=0;locked=1;connectable=0;" vertex="1" parent="lORc25aRMC__WhGPj0ZI-49">
          <mxGeometry x="3" y="20" width="54" height="54" as="geometry" />
        </mxCell>
        <mxCell id="lORc25aRMC__WhGPj0ZI-52" value="" style="group;movable=0;resizable=0;rotatable=0;deletable=0;editable=0;locked=1;connectable=0;" vertex="1" connectable="0" parent="1">
          <mxGeometry x="409.5" y="476" width="60" height="74" as="geometry" />
        </mxCell>
        <mxCell id="lORc25aRMC__WhGPj0ZI-53" value="&lt;font style=&quot;color: light-dark(rgb(140, 79, 255), rgb(237, 237, 237)); font-size: 10px;&quot;&gt;&lt;b&gt;NAT GW&lt;/b&gt;&lt;/font&gt;" style="text;html=1;align=center;verticalAlign=middle;whiteSpace=wrap;rounded=0;movable=0;resizable=0;rotatable=0;deletable=0;editable=0;locked=1;connectable=0;" vertex="1" parent="lORc25aRMC__WhGPj0ZI-52">
          <mxGeometry width="60" height="29" as="geometry" />
        </mxCell>
        <mxCell id="lORc25aRMC__WhGPj0ZI-54" value="" style="sketch=0;outlineConnect=0;fontColor=#232F3E;gradientColor=none;fillColor=#8C4FFF;strokeColor=none;dashed=0;verticalLabelPosition=bottom;verticalAlign=top;align=center;html=1;fontSize=12;fontStyle=0;aspect=fixed;pointerEvents=1;shape=mxgraph.aws4.nat_gateway;movable=0;resizable=0;rotatable=0;deletable=0;editable=0;locked=1;connectable=0;" vertex="1" parent="lORc25aRMC__WhGPj0ZI-52">
          <mxGeometry x="3" y="20" width="54" height="54" as="geometry" />
        </mxCell>
        <mxCell id="lORc25aRMC__WhGPj0ZI-57" value="&lt;font style=&quot;color: light-dark(rgb(220, 54, 34), rgb(237, 237, 237)); font-size: 10px;&quot;&gt;ALB SG - in 443 from internet&lt;/font&gt;" style="text;html=1;align=center;verticalAlign=middle;whiteSpace=wrap;rounded=0;movable=0;resizable=0;rotatable=0;deletable=0;editable=0;locked=1;connectable=0;" vertex="1" parent="1">
          <mxGeometry x="329" y="454" width="161" height="30" as="geometry" />
        </mxCell>
        <mxCell id="lORc25aRMC__WhGPj0ZI-105" style="edgeStyle=orthogonalEdgeStyle;rounded=0;orthogonalLoop=1;jettySize=auto;html=1;endSize=2;startArrow=classic;startFill=1;endArrow=none;endFill=0;startSize=2;entryX=0.5;entryY=1;entryDx=0;entryDy=0;entryPerimeter=0;exitX=0.75;exitY=0;exitDx=0;exitDy=0;" edge="1" parent="1" source="lORc25aRMC__WhGPj0ZI-94">
          <mxGeometry relative="1" as="geometry">
            <Array as="points">
              <mxPoint x="615" y="420" />
              <mxPoint x="770" y="420" />
              <mxPoint x="770" y="410" />
              <mxPoint x="610" y="410" />
            </Array>
            <mxPoint x="610" y="401" as="targetPoint" />
          </mxGeometry>
        </mxCell>
        <mxCell id="lORc25aRMC__WhGPj0ZI-129" value="" style="group;movable=0;resizable=0;rotatable=0;deletable=0;editable=0;locked=1;connectable=0;" vertex="1" connectable="0" parent="1">
          <mxGeometry x="530" y="59" width="200" height="432" as="geometry" />
        </mxCell>
        <mxCell id="lORc25aRMC__WhGPj0ZI-59" value="Private subnet" style="points=[[0,0],[0.25,0],[0.5,0],[0.75,0],[1,0],[1,0.25],[1,0.5],[1,0.75],[1,1],[0.75,1],[0.5,1],[0.25,1],[0,1],[0,0.75],[0,0.5],[0,0.25]];outlineConnect=0;gradientColor=none;html=1;whiteSpace=wrap;fontSize=12;fontStyle=0;container=1;pointerEvents=0;collapsible=0;recursiveResize=0;shape=mxgraph.aws4.group;grIcon=mxgraph.aws4.group_security_group;grStroke=0;strokeColor=#00A4A6;fillColor=#E6F6F7;verticalAlign=top;align=left;spacingLeft=30;fontColor=#147EBA;dashed=0;movable=0;resizable=0;rotatable=0;deletable=0;editable=0;locked=1;connectable=0;" vertex="1" parent="lORc25aRMC__WhGPj0ZI-129">
          <mxGeometry x="20" width="120" height="231" as="geometry" />
        </mxCell>
        <mxCell id="lORc25aRMC__WhGPj0ZI-62" value="&lt;font style=&quot;color: light-dark(rgb(238, 113, 0), rgb(237, 237, 237)); font-size: 8px;&quot;&gt;&lt;b style=&quot;&quot;&gt;Elastic Container Service&lt;/b&gt;&lt;/font&gt;" style="text;html=1;align=center;verticalAlign=middle;whiteSpace=wrap;rounded=0;movable=0;resizable=0;rotatable=0;deletable=0;editable=0;locked=1;connectable=0;" vertex="1" parent="lORc25aRMC__WhGPj0ZI-129">
          <mxGeometry y="21" width="160" height="20" as="geometry" />
        </mxCell>
        <mxCell id="lORc25aRMC__WhGPj0ZI-61" value="" style="sketch=0;points=[[0,0,0],[0.25,0,0],[0.5,0,0],[0.75,0,0],[1,0,0],[0,1,0],[0.25,1,0],[0.5,1,0],[0.75,1,0],[1,1,0],[0,0.25,0],[0,0.5,0],[0,0.75,0],[1,0.25,0],[1,0.5,0],[1,0.75,0]];outlineConnect=0;fontColor=#232F3E;fillColor=#ED7100;strokeColor=#ffffff;dashed=0;verticalLabelPosition=bottom;verticalAlign=top;align=center;html=1;fontSize=12;fontStyle=0;aspect=fixed;shape=mxgraph.aws4.resourceIcon;resIcon=mxgraph.aws4.ecs;movable=0;resizable=0;rotatable=0;deletable=0;editable=0;locked=1;connectable=0;" vertex="1" parent="lORc25aRMC__WhGPj0ZI-129">
          <mxGeometry x="65" y="41" width="30" height="30" as="geometry" />
        </mxCell>
        <mxCell id="lORc25aRMC__WhGPj0ZI-84" value="" style="group;movable=0;resizable=0;rotatable=0;deletable=0;editable=0;locked=1;connectable=0;" vertex="1" connectable="0" parent="lORc25aRMC__WhGPj0ZI-129">
          <mxGeometry x="40" y="85" width="160" height="347" as="geometry" />
        </mxCell>
        <mxCell id="lORc25aRMC__WhGPj0ZI-65" value="" style="whiteSpace=wrap;html=1;dashed=1;strokeColor=light-dark(#ee7100, #ededed);fillColor=none;strokeWidth=1;movable=0;resizable=0;rotatable=0;deletable=0;editable=0;locked=1;connectable=0;" vertex="1" parent="lORc25aRMC__WhGPj0ZI-84">
          <mxGeometry width="80" height="130" as="geometry" />
        </mxCell>
        <mxCell id="lORc25aRMC__WhGPj0ZI-66" value="&lt;font style=&quot;font-size: 9px;&quot;&gt;Target Group&lt;/font&gt;" style="text;html=1;align=center;verticalAlign=middle;whiteSpace=wrap;rounded=0;movable=0;resizable=0;rotatable=0;deletable=0;editable=0;locked=1;connectable=0;" vertex="1" parent="lORc25aRMC__WhGPj0ZI-84">
          <mxGeometry x="0.0049999999999954525" width="60" height="10" as="geometry" />
        </mxCell>
        <mxCell id="lORc25aRMC__WhGPj0ZI-83" value="" style="group;movable=0;resizable=0;rotatable=0;deletable=0;editable=0;locked=1;connectable=0;" vertex="1" connectable="0" parent="lORc25aRMC__WhGPj0ZI-84">
          <mxGeometry x="16.875" y="18.75" width="46.25" height="86.25" as="geometry" />
        </mxCell>
        <mxCell id="lORc25aRMC__WhGPj0ZI-73" value="" style="group;movable=0;resizable=0;rotatable=0;deletable=0;editable=0;locked=1;connectable=0;" vertex="1" connectable="0" parent="lORc25aRMC__WhGPj0ZI-83">
          <mxGeometry width="46.25" height="25" as="geometry" />
        </mxCell>
        <mxCell id="lORc25aRMC__WhGPj0ZI-67" value="" style="sketch=0;points=[[0,0,0],[0.25,0,0],[0.5,0,0],[0.75,0,0],[1,0,0],[0,1,0],[0.25,1,0],[0.5,1,0],[0.75,1,0],[1,1,0],[0,0.25,0],[0,0.5,0],[0,0.75,0],[1,0.25,0],[1,0.5,0],[1,0.75,0]];outlineConnect=0;fontColor=#232F3E;fillColor=#ED7100;strokeColor=#ffffff;dashed=0;verticalLabelPosition=bottom;verticalAlign=top;align=center;html=1;fontSize=12;fontStyle=0;aspect=fixed;shape=mxgraph.aws4.resourceIcon;resIcon=mxgraph.aws4.fargate;movable=0;resizable=0;rotatable=0;deletable=0;editable=0;locked=1;connectable=0;" vertex="1" parent="lORc25aRMC__WhGPj0ZI-73">
          <mxGeometry y="5" width="20" height="20" as="geometry" />
        </mxCell>
        <mxCell id="lORc25aRMC__WhGPj0ZI-68" value="&lt;font style=&quot;font-size: 8px;&quot;&gt;NuxtJS&lt;/font&gt;" style="text;html=1;align=center;verticalAlign=middle;whiteSpace=wrap;rounded=0;fillColor=default;strokeColor=light-dark(#ee7100, #ededed);movable=0;resizable=0;rotatable=0;deletable=0;editable=0;locked=1;connectable=0;" vertex="1" parent="lORc25aRMC__WhGPj0ZI-73">
          <mxGeometry x="16.25" width="30" height="10" as="geometry" />
        </mxCell>
        <mxCell id="lORc25aRMC__WhGPj0ZI-77" value="" style="group;movable=0;resizable=0;rotatable=0;deletable=0;editable=0;locked=1;connectable=0;" vertex="1" connectable="0" parent="lORc25aRMC__WhGPj0ZI-83">
          <mxGeometry y="31.25" width="46.25" height="25" as="geometry" />
        </mxCell>
        <mxCell id="lORc25aRMC__WhGPj0ZI-78" value="" style="sketch=0;points=[[0,0,0],[0.25,0,0],[0.5,0,0],[0.75,0,0],[1,0,0],[0,1,0],[0.25,1,0],[0.5,1,0],[0.75,1,0],[1,1,0],[0,0.25,0],[0,0.5,0],[0,0.75,0],[1,0.25,0],[1,0.5,0],[1,0.75,0]];outlineConnect=0;fontColor=#232F3E;fillColor=#ED7100;strokeColor=#ffffff;dashed=0;verticalLabelPosition=bottom;verticalAlign=top;align=center;html=1;fontSize=12;fontStyle=0;aspect=fixed;shape=mxgraph.aws4.resourceIcon;resIcon=mxgraph.aws4.fargate;movable=0;resizable=0;rotatable=0;deletable=0;editable=0;locked=1;connectable=0;" vertex="1" parent="lORc25aRMC__WhGPj0ZI-77">
          <mxGeometry y="5" width="20" height="20" as="geometry" />
        </mxCell>
        <mxCell id="lORc25aRMC__WhGPj0ZI-79" value="&lt;font style=&quot;font-size: 8px;&quot;&gt;NuxtJS&lt;/font&gt;" style="text;html=1;align=center;verticalAlign=middle;whiteSpace=wrap;rounded=0;fillColor=default;strokeColor=light-dark(#ee7100, #ededed);movable=0;resizable=0;rotatable=0;deletable=0;editable=0;locked=1;connectable=0;" vertex="1" parent="lORc25aRMC__WhGPj0ZI-77">
          <mxGeometry x="16.25" width="30" height="10" as="geometry" />
        </mxCell>
        <mxCell id="lORc25aRMC__WhGPj0ZI-80" value="" style="group;movable=0;resizable=0;rotatable=0;deletable=0;editable=0;locked=1;connectable=0;" vertex="1" connectable="0" parent="lORc25aRMC__WhGPj0ZI-83">
          <mxGeometry y="61.25" width="46.25" height="25" as="geometry" />
        </mxCell>
        <mxCell id="lORc25aRMC__WhGPj0ZI-81" value="" style="sketch=0;points=[[0,0,0],[0.25,0,0],[0.5,0,0],[0.75,0,0],[1,0,0],[0,1,0],[0.25,1,0],[0.5,1,0],[0.75,1,0],[1,1,0],[0,0.25,0],[0,0.5,0],[0,0.75,0],[1,0.25,0],[1,0.5,0],[1,0.75,0]];outlineConnect=0;fontColor=#232F3E;fillColor=#ED7100;strokeColor=#ffffff;dashed=0;verticalLabelPosition=bottom;verticalAlign=top;align=center;html=1;fontSize=12;fontStyle=0;aspect=fixed;shape=mxgraph.aws4.resourceIcon;resIcon=mxgraph.aws4.fargate;movable=0;resizable=0;rotatable=0;deletable=0;editable=0;locked=1;connectable=0;" vertex="1" parent="lORc25aRMC__WhGPj0ZI-80">
          <mxGeometry y="5" width="20" height="20" as="geometry" />
        </mxCell>
        <mxCell id="lORc25aRMC__WhGPj0ZI-82" value="&lt;font style=&quot;font-size: 8px;&quot;&gt;NuxtJS&lt;/font&gt;" style="text;html=1;align=center;verticalAlign=middle;whiteSpace=wrap;rounded=0;fillColor=default;strokeColor=light-dark(#ee7100, #ededed);movable=0;resizable=0;rotatable=0;deletable=0;editable=0;locked=1;connectable=0;" vertex="1" parent="lORc25aRMC__WhGPj0ZI-80">
          <mxGeometry x="16.25" width="30" height="10" as="geometry" />
        </mxCell>
        <mxCell id="lORc25aRMC__WhGPj0ZI-88" style="edgeStyle=orthogonalEdgeStyle;rounded=0;orthogonalLoop=1;jettySize=auto;html=1;endSize=2;startArrow=classic;startFill=1;endArrow=none;endFill=0;startSize=2;entryX=0.5;entryY=1;entryDx=0;entryDy=0;entryPerimeter=0;movable=0;resizable=0;rotatable=0;deletable=0;editable=0;locked=1;connectable=0;" edge="1" parent="lORc25aRMC__WhGPj0ZI-129" source="lORc25aRMC__WhGPj0ZI-65" target="lORc25aRMC__WhGPj0ZI-61">
          <mxGeometry relative="1" as="geometry">
            <Array as="points">
              <mxPoint x="80" y="160" />
              <mxPoint x="80" y="71" />
            </Array>
          </mxGeometry>
        </mxCell>
        <mxCell id="lORc25aRMC__WhGPj0ZI-157" value="Private (DB) subnet" style="points=[[0,0],[0.25,0],[0.5,0],[0.75,0],[1,0],[1,0.25],[1,0.5],[1,0.75],[1,1],[0.75,1],[0.5,1],[0.25,1],[0,1],[0,0.75],[0,0.5],[0,0.25]];outlineConnect=0;gradientColor=none;html=1;whiteSpace=wrap;fontSize=12;fontStyle=0;container=1;pointerEvents=0;collapsible=0;recursiveResize=0;shape=mxgraph.aws4.group;grIcon=mxgraph.aws4.group_security_group;grStroke=0;strokeColor=#00A4A6;fillColor=#C3CFD0;verticalAlign=top;align=left;spacingLeft=30;fontColor=#147EBA;dashed=0;movable=0;resizable=0;rotatable=0;deletable=0;editable=0;locked=1;connectable=0;" vertex="1" parent="1">
          <mxGeometry x="670" y="329" width="140" height="230" as="geometry" />
        </mxCell>
        <mxCell id="lORc25aRMC__WhGPj0ZI-158" value="&lt;font style=&quot;color: light-dark(rgb(201, 36, 208), rgb(237, 237, 237));&quot;&gt;&lt;b&gt;RDS Database&lt;/b&gt;&lt;/font&gt;" style="text;html=1;align=center;verticalAlign=middle;whiteSpace=wrap;rounded=0;movable=0;resizable=0;rotatable=0;deletable=0;editable=0;locked=1;connectable=0;" vertex="1" parent="lORc25aRMC__WhGPj0ZI-157">
          <mxGeometry x="28" y="127.75" width="90" height="30" as="geometry" />
        </mxCell>
        <mxCell id="lORc25aRMC__WhGPj0ZI-130" value="" style="group;movable=0;resizable=0;rotatable=0;deletable=0;editable=0;locked=1;connectable=0;" vertex="1" connectable="0" parent="1">
          <mxGeometry x="530" y="329" width="200" height="432" as="geometry" />
        </mxCell>
        <mxCell id="lORc25aRMC__WhGPj0ZI-131" value="Private subnet" style="points=[[0,0],[0.25,0],[0.5,0],[0.75,0],[1,0],[1,0.25],[1,0.5],[1,0.75],[1,1],[0.75,1],[0.5,1],[0.25,1],[0,1],[0,0.75],[0,0.5],[0,0.25]];outlineConnect=0;gradientColor=none;html=1;whiteSpace=wrap;fontSize=12;fontStyle=0;container=1;pointerEvents=0;collapsible=0;recursiveResize=0;shape=mxgraph.aws4.group;grIcon=mxgraph.aws4.group_security_group;grStroke=0;strokeColor=#00A4A6;fillColor=#E6F6F7;verticalAlign=top;align=left;spacingLeft=30;fontColor=#147EBA;dashed=0;movable=0;resizable=0;rotatable=0;deletable=0;editable=0;locked=1;connectable=0;" vertex="1" parent="lORc25aRMC__WhGPj0ZI-130">
          <mxGeometry x="20" width="120" height="231" as="geometry" />
        </mxCell>
        <mxCell id="lORc25aRMC__WhGPj0ZI-132" value="&lt;font style=&quot;color: light-dark(rgb(238, 113, 0), rgb(237, 237, 237)); font-size: 8px;&quot;&gt;&lt;b style=&quot;&quot;&gt;Elastic Container Service&lt;/b&gt;&lt;/font&gt;" style="text;html=1;align=center;verticalAlign=middle;whiteSpace=wrap;rounded=0;movable=0;resizable=0;rotatable=0;deletable=0;editable=0;locked=1;connectable=0;" vertex="1" parent="lORc25aRMC__WhGPj0ZI-130">
          <mxGeometry y="21" width="160" height="20" as="geometry" />
        </mxCell>
        <mxCell id="lORc25aRMC__WhGPj0ZI-133" value="" style="sketch=0;points=[[0,0,0],[0.25,0,0],[0.5,0,0],[0.75,0,0],[1,0,0],[0,1,0],[0.25,1,0],[0.5,1,0],[0.75,1,0],[1,1,0],[0,0.25,0],[0,0.5,0],[0,0.75,0],[1,0.25,0],[1,0.5,0],[1,0.75,0]];outlineConnect=0;fontColor=#232F3E;fillColor=#ED7100;strokeColor=#ffffff;dashed=0;verticalLabelPosition=bottom;verticalAlign=top;align=center;html=1;fontSize=12;fontStyle=0;aspect=fixed;shape=mxgraph.aws4.resourceIcon;resIcon=mxgraph.aws4.ecs;movable=0;resizable=0;rotatable=0;deletable=0;editable=0;locked=1;connectable=0;" vertex="1" parent="lORc25aRMC__WhGPj0ZI-130">
          <mxGeometry x="65" y="41" width="30" height="30" as="geometry" />
        </mxCell>
        <mxCell id="lORc25aRMC__WhGPj0ZI-134" value="" style="group;movable=0;resizable=0;rotatable=0;deletable=0;editable=0;locked=1;connectable=0;" vertex="1" connectable="0" parent="lORc25aRMC__WhGPj0ZI-130">
          <mxGeometry x="40" y="85" width="160" height="347" as="geometry" />
        </mxCell>
        <mxCell id="lORc25aRMC__WhGPj0ZI-135" value="" style="whiteSpace=wrap;html=1;dashed=1;strokeColor=light-dark(#ee7100, #ededed);fillColor=none;strokeWidth=1;movable=0;resizable=0;rotatable=0;deletable=0;editable=0;locked=1;connectable=0;" vertex="1" parent="lORc25aRMC__WhGPj0ZI-134">
          <mxGeometry width="80" height="130" as="geometry" />
        </mxCell>
        <mxCell id="lORc25aRMC__WhGPj0ZI-136" value="&lt;font style=&quot;font-size: 9px;&quot;&gt;Target Group&lt;/font&gt;" style="text;html=1;align=center;verticalAlign=middle;whiteSpace=wrap;rounded=0;movable=0;resizable=0;rotatable=0;deletable=0;editable=0;locked=1;connectable=0;" vertex="1" parent="lORc25aRMC__WhGPj0ZI-134">
          <mxGeometry x="0.0049999999999954525" width="60" height="10" as="geometry" />
        </mxCell>
        <mxCell id="lORc25aRMC__WhGPj0ZI-137" value="" style="group;movable=0;resizable=0;rotatable=0;deletable=0;editable=0;locked=1;connectable=0;" vertex="1" connectable="0" parent="lORc25aRMC__WhGPj0ZI-134">
          <mxGeometry x="16.875" y="18.75" width="46.25" height="86.25" as="geometry" />
        </mxCell>
        <mxCell id="lORc25aRMC__WhGPj0ZI-138" value="" style="group;movable=0;resizable=0;rotatable=0;deletable=0;editable=0;locked=1;connectable=0;" vertex="1" connectable="0" parent="lORc25aRMC__WhGPj0ZI-137">
          <mxGeometry width="46.25" height="25" as="geometry" />
        </mxCell>
        <mxCell id="lORc25aRMC__WhGPj0ZI-139" value="" style="sketch=0;points=[[0,0,0],[0.25,0,0],[0.5,0,0],[0.75,0,0],[1,0,0],[0,1,0],[0.25,1,0],[0.5,1,0],[0.75,1,0],[1,1,0],[0,0.25,0],[0,0.5,0],[0,0.75,0],[1,0.25,0],[1,0.5,0],[1,0.75,0]];outlineConnect=0;fontColor=#232F3E;fillColor=#ED7100;strokeColor=#ffffff;dashed=0;verticalLabelPosition=bottom;verticalAlign=top;align=center;html=1;fontSize=12;fontStyle=0;aspect=fixed;shape=mxgraph.aws4.resourceIcon;resIcon=mxgraph.aws4.fargate;movable=0;resizable=0;rotatable=0;deletable=0;editable=0;locked=1;connectable=0;" vertex="1" parent="lORc25aRMC__WhGPj0ZI-138">
          <mxGeometry y="5" width="20" height="20" as="geometry" />
        </mxCell>
        <mxCell id="lORc25aRMC__WhGPj0ZI-140" value="&lt;font style=&quot;font-size: 8px;&quot;&gt;NuxtJS&lt;/font&gt;" style="text;html=1;align=center;verticalAlign=middle;whiteSpace=wrap;rounded=0;fillColor=default;strokeColor=light-dark(#ee7100, #ededed);movable=0;resizable=0;rotatable=0;deletable=0;editable=0;locked=1;connectable=0;" vertex="1" parent="lORc25aRMC__WhGPj0ZI-138">
          <mxGeometry x="16.25" width="30" height="10" as="geometry" />
        </mxCell>
        <mxCell id="lORc25aRMC__WhGPj0ZI-141" value="" style="group;movable=0;resizable=0;rotatable=0;deletable=0;editable=0;locked=1;connectable=0;" vertex="1" connectable="0" parent="lORc25aRMC__WhGPj0ZI-137">
          <mxGeometry y="31.25" width="46.25" height="25" as="geometry" />
        </mxCell>
        <mxCell id="lORc25aRMC__WhGPj0ZI-142" value="" style="sketch=0;points=[[0,0,0],[0.25,0,0],[0.5,0,0],[0.75,0,0],[1,0,0],[0,1,0],[0.25,1,0],[0.5,1,0],[0.75,1,0],[1,1,0],[0,0.25,0],[0,0.5,0],[0,0.75,0],[1,0.25,0],[1,0.5,0],[1,0.75,0]];outlineConnect=0;fontColor=#232F3E;fillColor=#ED7100;strokeColor=#ffffff;dashed=0;verticalLabelPosition=bottom;verticalAlign=top;align=center;html=1;fontSize=12;fontStyle=0;aspect=fixed;shape=mxgraph.aws4.resourceIcon;resIcon=mxgraph.aws4.fargate;movable=0;resizable=0;rotatable=0;deletable=0;editable=0;locked=1;connectable=0;" vertex="1" parent="lORc25aRMC__WhGPj0ZI-141">
          <mxGeometry y="5" width="20" height="20" as="geometry" />
        </mxCell>
        <mxCell id="lORc25aRMC__WhGPj0ZI-143" value="&lt;font style=&quot;font-size: 8px;&quot;&gt;NuxtJS&lt;/font&gt;" style="text;html=1;align=center;verticalAlign=middle;whiteSpace=wrap;rounded=0;fillColor=default;strokeColor=light-dark(#ee7100, #ededed);movable=0;resizable=0;rotatable=0;deletable=0;editable=0;locked=1;connectable=0;" vertex="1" parent="lORc25aRMC__WhGPj0ZI-141">
          <mxGeometry x="16.25" width="30" height="10" as="geometry" />
        </mxCell>
        <mxCell id="lORc25aRMC__WhGPj0ZI-144" value="" style="group;movable=0;resizable=0;rotatable=0;deletable=0;editable=0;locked=1;connectable=0;" vertex="1" connectable="0" parent="lORc25aRMC__WhGPj0ZI-137">
          <mxGeometry y="61.25" width="46.25" height="25" as="geometry" />
        </mxCell>
        <mxCell id="lORc25aRMC__WhGPj0ZI-145" value="" style="sketch=0;points=[[0,0,0],[0.25,0,0],[0.5,0,0],[0.75,0,0],[1,0,0],[0,1,0],[0.25,1,0],[0.5,1,0],[0.75,1,0],[1,1,0],[0,0.25,0],[0,0.5,0],[0,0.75,0],[1,0.25,0],[1,0.5,0],[1,0.75,0]];outlineConnect=0;fontColor=#232F3E;fillColor=#ED7100;strokeColor=#ffffff;dashed=0;verticalLabelPosition=bottom;verticalAlign=top;align=center;html=1;fontSize=12;fontStyle=0;aspect=fixed;shape=mxgraph.aws4.resourceIcon;resIcon=mxgraph.aws4.fargate;movable=0;resizable=0;rotatable=0;deletable=0;editable=0;locked=1;connectable=0;" vertex="1" parent="lORc25aRMC__WhGPj0ZI-144">
          <mxGeometry y="5" width="20" height="20" as="geometry" />
        </mxCell>
        <mxCell id="lORc25aRMC__WhGPj0ZI-146" value="&lt;font style=&quot;font-size: 8px;&quot;&gt;NuxtJS&lt;/font&gt;" style="text;html=1;align=center;verticalAlign=middle;whiteSpace=wrap;rounded=0;fillColor=default;strokeColor=light-dark(#ee7100, #ededed);movable=0;resizable=0;rotatable=0;deletable=0;editable=0;locked=1;connectable=0;" vertex="1" parent="lORc25aRMC__WhGPj0ZI-144">
          <mxGeometry x="16.25" width="30" height="10" as="geometry" />
        </mxCell>
        <mxCell id="lORc25aRMC__WhGPj0ZI-149" value="&lt;font style=&quot;color: light-dark(rgb(220, 54, 34), rgb(237, 237, 237)); font-size: 10px;&quot;&gt;ECS SG - in 3000 from ALB&lt;/font&gt;" style="text;html=1;align=center;verticalAlign=middle;whiteSpace=wrap;rounded=0;movable=0;resizable=0;rotatable=0;deletable=0;editable=0;locked=1;connectable=0;" vertex="1" parent="lORc25aRMC__WhGPj0ZI-134">
          <mxGeometry x="-20" y="130" width="130" height="30" as="geometry" />
        </mxCell>
        <mxCell id="lORc25aRMC__WhGPj0ZI-147" style="edgeStyle=orthogonalEdgeStyle;rounded=0;orthogonalLoop=1;jettySize=auto;html=1;endSize=2;startArrow=classic;startFill=1;endArrow=none;endFill=0;startSize=2;entryX=0.5;entryY=1;entryDx=0;entryDy=0;entryPerimeter=0;movable=0;resizable=0;rotatable=0;deletable=0;editable=0;locked=1;connectable=0;" edge="1" parent="lORc25aRMC__WhGPj0ZI-130" source="lORc25aRMC__WhGPj0ZI-135" target="lORc25aRMC__WhGPj0ZI-133">
          <mxGeometry relative="1" as="geometry">
            <Array as="points">
              <mxPoint x="80" y="160" />
              <mxPoint x="80" y="71" />
            </Array>
          </mxGeometry>
        </mxCell>
        <mxCell id="lORc25aRMC__WhGPj0ZI-151" value="Private (DB) subnet" style="points=[[0,0],[0.25,0],[0.5,0],[0.75,0],[1,0],[1,0.25],[1,0.5],[1,0.75],[1,1],[0.75,1],[0.5,1],[0.25,1],[0,1],[0,0.75],[0,0.5],[0,0.25]];outlineConnect=0;gradientColor=none;html=1;whiteSpace=wrap;fontSize=12;fontStyle=0;container=1;pointerEvents=0;collapsible=0;recursiveResize=0;shape=mxgraph.aws4.group;grIcon=mxgraph.aws4.group_security_group;grStroke=0;strokeColor=#00A4A6;fillColor=#C3CFD0;verticalAlign=top;align=left;spacingLeft=30;fontColor=#147EBA;dashed=0;movable=0;resizable=0;rotatable=0;deletable=0;editable=0;locked=1;connectable=0;" vertex="1" parent="1">
          <mxGeometry x="670" y="60" width="140" height="230" as="geometry" />
        </mxCell>
        <mxCell id="lORc25aRMC__WhGPj0ZI-155" value="&lt;font style=&quot;color: light-dark(rgb(201, 36, 208), rgb(237, 237, 237));&quot;&gt;&lt;b&gt;RDS Database&lt;/b&gt;&lt;/font&gt;" style="text;html=1;align=center;verticalAlign=middle;whiteSpace=wrap;rounded=0;movable=0;resizable=0;rotatable=0;deletable=0;editable=0;locked=1;connectable=0;" vertex="1" parent="lORc25aRMC__WhGPj0ZI-151">
          <mxGeometry x="28" y="127.75" width="90" height="30" as="geometry" />
        </mxCell>
        <mxCell id="lORc25aRMC__WhGPj0ZI-154" value="" style="sketch=0;points=[[0,0,0],[0.25,0,0],[0.5,0,0],[0.75,0,0],[1,0,0],[0,1,0],[0.25,1,0],[0.5,1,0],[0.75,1,0],[1,1,0],[0,0.25,0],[0,0.5,0],[0,0.75,0],[1,0.25,0],[1,0.5,0],[1,0.75,0]];outlineConnect=0;fontColor=#232F3E;fillColor=#C925D1;strokeColor=#ffffff;dashed=0;verticalLabelPosition=bottom;verticalAlign=top;align=center;html=1;fontSize=12;fontStyle=0;aspect=fixed;shape=mxgraph.aws4.resourceIcon;resIcon=mxgraph.aws4.rds;movable=0;resizable=0;rotatable=0;deletable=0;editable=0;locked=1;connectable=0;" vertex="1" parent="1">
          <mxGeometry x="723" y="150" width="40" height="40" as="geometry" />
        </mxCell>
        <mxCell id="lORc25aRMC__WhGPj0ZI-161" value="" style="fillColor=none;strokeColor=#DD3522;verticalAlign=top;fontStyle=0;fontColor=#DD3522;whiteSpace=wrap;html=1;movable=0;resizable=0;rotatable=0;deletable=0;editable=0;locked=1;connectable=0;" vertex="1" parent="1">
          <mxGeometry x="690" y="120" width="110" height="410" as="geometry" />
        </mxCell>
        <mxCell id="lORc25aRMC__WhGPj0ZI-156" value="&lt;font style=&quot;font-size: 10px;&quot;&gt;MySQL&lt;/font&gt;" style="text;html=1;align=center;verticalAlign=middle;whiteSpace=wrap;rounded=0;fillColor=default;strokeColor=light-dark(#c924d1, #ededed);movable=0;resizable=0;rotatable=0;deletable=0;editable=0;locked=1;connectable=0;" vertex="1" parent="1">
          <mxGeometry x="757.5" y="140" width="45" height="15" as="geometry" />
        </mxCell>
        <mxCell id="lORc25aRMC__WhGPj0ZI-159" value="" style="sketch=0;points=[[0,0,0],[0.25,0,0],[0.5,0,0],[0.75,0,0],[1,0,0],[0,1,0],[0.25,1,0],[0.5,1,0],[0.75,1,0],[1,1,0],[0,0.25,0],[0,0.5,0],[0,0.75,0],[1,0.25,0],[1,0.5,0],[1,0.75,0]];outlineConnect=0;fontColor=#232F3E;fillColor=#C925D1;strokeColor=#ffffff;dashed=0;verticalLabelPosition=bottom;verticalAlign=top;align=center;html=1;fontSize=12;fontStyle=0;aspect=fixed;shape=mxgraph.aws4.resourceIcon;resIcon=mxgraph.aws4.rds;movable=0;resizable=0;rotatable=0;deletable=0;editable=0;locked=1;connectable=0;" vertex="1" parent="1">
          <mxGeometry x="723" y="419" width="40" height="40" as="geometry" />
        </mxCell>
        <mxCell id="lORc25aRMC__WhGPj0ZI-160" value="&lt;font style=&quot;font-size: 10px;&quot;&gt;MySQL&lt;/font&gt;" style="text;html=1;align=center;verticalAlign=middle;whiteSpace=wrap;rounded=0;fillColor=default;strokeColor=light-dark(#c924d1, #ededed);movable=0;resizable=0;rotatable=0;deletable=0;editable=0;locked=1;connectable=0;" vertex="1" parent="1">
          <mxGeometry x="757.5" y="409" width="45" height="15" as="geometry" />
        </mxCell>
        <mxCell id="lORc25aRMC__WhGPj0ZI-148" value="" style="fillColor=none;strokeColor=#DD3522;verticalAlign=top;fontStyle=0;fontColor=#DD3522;whiteSpace=wrap;html=1;movable=0;resizable=0;rotatable=0;deletable=0;editable=0;locked=1;connectable=0;" vertex="1" parent="1">
          <mxGeometry x="560" y="140" width="100" height="410" as="geometry" />
        </mxCell>
        <mxCell id="lORc25aRMC__WhGPj0ZI-162" value="&lt;font style=&quot;color: light-dark(rgb(220, 54, 34), rgb(237, 237, 237)); font-size: 10px;&quot;&gt;RDS SG - in 3306 from ECS&lt;/font&gt;" style="text;html=1;align=center;verticalAlign=middle;whiteSpace=wrap;rounded=0;movable=0;resizable=0;rotatable=0;deletable=0;editable=0;locked=1;connectable=0;" vertex="1" parent="1">
          <mxGeometry x="680" y="520" width="130" height="30" as="geometry" />
        </mxCell>
        <mxCell id="lORc25aRMC__WhGPj0ZI-173" value="" style="endArrow=classic;html=1;rounded=0;" edge="1" parent="1">
          <mxGeometry width="50" height="50" relative="1" as="geometry">
            <mxPoint x="470" y="250" as="sourcePoint" />
            <mxPoint x="570" y="210" as="targetPoint" />
          </mxGeometry>
        </mxCell>
        <mxCell id="lORc25aRMC__WhGPj0ZI-174" value="" style="endArrow=classic;html=1;rounded=0;" edge="1" parent="1">
          <mxGeometry width="50" height="50" relative="1" as="geometry">
            <mxPoint x="470" y="430" as="sourcePoint" />
            <mxPoint x="570" y="470" as="targetPoint" />
          </mxGeometry>
        </mxCell>
        <mxCell id="lORc25aRMC__WhGPj0ZI-175" value="" style="endArrow=classic;html=1;rounded=0;" edge="1" parent="1">
          <mxGeometry width="50" height="50" relative="1" as="geometry">
            <mxPoint x="660" y="330" as="sourcePoint" />
            <mxPoint x="720" y="180" as="targetPoint" />
          </mxGeometry>
        </mxCell>
        <mxCell id="lORc25aRMC__WhGPj0ZI-176" value="" style="endArrow=classic;html=1;rounded=0;" edge="1" parent="1">
          <mxGeometry width="50" height="50" relative="1" as="geometry">
            <mxPoint x="660" y="330" as="sourcePoint" />
            <mxPoint x="720" y="450" as="targetPoint" />
          </mxGeometry>
        </mxCell>
        <mxCell id="lORc25aRMC__WhGPj0ZI-177" value="&lt;font style=&quot;font-size: 6px;&quot;&gt;ECS Fargate Containers&lt;/font&gt;" style="text;html=1;align=center;verticalAlign=middle;whiteSpace=wrap;rounded=0;" vertex="1" parent="1">
          <mxGeometry x="560" y="250" width="100" height="20" as="geometry" />
        </mxCell>
        <mxCell id="lORc25aRMC__WhGPj0ZI-178" value="&lt;font style=&quot;font-size: 6px;&quot;&gt;ECS Fargate Containers&lt;/font&gt;" style="text;html=1;align=center;verticalAlign=middle;whiteSpace=wrap;rounded=0;" vertex="1" parent="1">
          <mxGeometry x="560" y="520" width="100" height="20" as="geometry" />
        </mxCell>
        <mxCell id="lORc25aRMC__WhGPj0ZI-188" value="" style="group" vertex="1" connectable="0" parent="1">
          <mxGeometry x="380" y="600" width="401.5" height="100" as="geometry" />
        </mxCell>
        <mxCell id="lORc25aRMC__WhGPj0ZI-182" value="&lt;font style=&quot;color: light-dark(rgb(238, 113, 0), rgb(237, 237, 237));&quot;&gt;&lt;b&gt;Elastic Container Registry&lt;/b&gt;&lt;/font&gt;" style="text;html=1;align=center;verticalAlign=middle;whiteSpace=wrap;rounded=0;" vertex="1" parent="lORc25aRMC__WhGPj0ZI-188">
          <mxGeometry x="81.5" y="50" width="101" height="50" as="geometry" />
        </mxCell>
        <mxCell id="lORc25aRMC__WhGPj0ZI-187" value="" style="group" vertex="1" connectable="0" parent="lORc25aRMC__WhGPj0ZI-188">
          <mxGeometry width="401.5" height="82" as="geometry" />
        </mxCell>
        <mxCell id="lORc25aRMC__WhGPj0ZI-179" value="" style="sketch=0;points=[[0,0,0],[0.25,0,0],[0.5,0,0],[0.75,0,0],[1,0,0],[0,1,0],[0.25,1,0],[0.5,1,0],[0.75,1,0],[1,1,0],[0,0.25,0],[0,0.5,0],[0,0.75,0],[1,0.25,0],[1,0.5,0],[1,0.75,0]];points=[[0,0,0],[0.25,0,0],[0.5,0,0],[0.75,0,0],[1,0,0],[0,1,0],[0.25,1,0],[0.5,1,0],[0.75,1,0],[1,1,0],[0,0.25,0],[0,0.5,0],[0,0.75,0],[1,0.25,0],[1,0.5,0],[1,0.75,0]];outlineConnect=0;fontColor=#232F3E;fillColor=#E7157B;strokeColor=#ffffff;dashed=0;verticalLabelPosition=bottom;verticalAlign=top;align=center;html=1;fontSize=12;fontStyle=0;aspect=fixed;shape=mxgraph.aws4.resourceIcon;resIcon=mxgraph.aws4.cloudwatch_2;" vertex="1" parent="lORc25aRMC__WhGPj0ZI-187">
          <mxGeometry x="339.5" width="54" height="54" as="geometry" />
        </mxCell>
        <mxCell id="lORc25aRMC__WhGPj0ZI-180" value="" style="sketch=0;points=[[0,0,0],[0.25,0,0],[0.5,0,0],[0.75,0,0],[1,0,0],[0,1,0],[0.25,1,0],[0.5,1,0],[0.75,1,0],[1,1,0],[0,0.25,0],[0,0.5,0],[0,0.75,0],[1,0.25,0],[1,0.5,0],[1,0.75,0]];outlineConnect=0;fontColor=#232F3E;fillColor=#ED7100;strokeColor=#ffffff;dashed=0;verticalLabelPosition=bottom;verticalAlign=top;align=center;html=1;fontSize=12;fontStyle=0;aspect=fixed;shape=mxgraph.aws4.resourceIcon;resIcon=mxgraph.aws4.ecr;" vertex="1" parent="lORc25aRMC__WhGPj0ZI-187">
          <mxGeometry x="105" width="54" height="54" as="geometry" />
        </mxCell>
        <mxCell id="lORc25aRMC__WhGPj0ZI-181" value="" style="sketch=0;points=[[0,0,0],[0.25,0,0],[0.5,0,0],[0.75,0,0],[1,0,0],[0,1,0],[0.25,1,0],[0.5,1,0],[0.75,1,0],[1,1,0],[0,0.25,0],[0,0.5,0],[0,0.75,0],[1,0.25,0],[1,0.5,0],[1,0.75,0]];outlineConnect=0;fontColor=#232F3E;fillColor=#DD344C;strokeColor=#ffffff;dashed=0;verticalLabelPosition=bottom;verticalAlign=top;align=center;html=1;fontSize=12;fontStyle=0;aspect=fixed;shape=mxgraph.aws4.resourceIcon;resIcon=mxgraph.aws4.secrets_manager;" vertex="1" parent="lORc25aRMC__WhGPj0ZI-187">
          <mxGeometry x="222.5" width="54" height="54" as="geometry" />
        </mxCell>
        <mxCell id="lORc25aRMC__WhGPj0ZI-183" value="&lt;font style=&quot;color: light-dark(rgb(220, 53, 76), rgb(237, 237, 237));&quot;&gt;&lt;b style=&quot;&quot;&gt;Secrets Manager&lt;/b&gt;&lt;/font&gt;" style="text;html=1;align=center;verticalAlign=middle;whiteSpace=wrap;rounded=0;" vertex="1" parent="lORc25aRMC__WhGPj0ZI-187">
          <mxGeometry x="199.5" y="52" width="100" height="30" as="geometry" />
        </mxCell>
        <mxCell id="lORc25aRMC__WhGPj0ZI-184" value="&lt;font style=&quot;color: light-dark(rgb(231, 22, 123), rgb(237, 237, 237));&quot;&gt;&lt;b style=&quot;&quot;&gt;CloudWatch&lt;/b&gt;&lt;/font&gt;" style="text;html=1;align=center;verticalAlign=middle;whiteSpace=wrap;rounded=0;" vertex="1" parent="lORc25aRMC__WhGPj0ZI-187">
          <mxGeometry x="331.5" y="52" width="70" height="30" as="geometry" />
        </mxCell>
        <mxCell id="lORc25aRMC__WhGPj0ZI-185" value="" style="sketch=0;points=[[0,0,0],[0.25,0,0],[0.5,0,0],[0.75,0,0],[1,0,0],[0,1,0],[0.25,1,0],[0.5,1,0],[0.75,1,0],[1,1,0],[0,0.25,0],[0,0.5,0],[0,0.75,0],[1,0.25,0],[1,0.5,0],[1,0.75,0]];outlineConnect=0;fontColor=#232F3E;fillColor=#DD344C;strokeColor=#ffffff;dashed=0;verticalLabelPosition=bottom;verticalAlign=top;align=center;html=1;fontSize=12;fontStyle=0;aspect=fixed;shape=mxgraph.aws4.resourceIcon;resIcon=mxgraph.aws4.identity_and_access_management;" vertex="1" parent="lORc25aRMC__WhGPj0ZI-187">
          <mxGeometry x="0.5" width="54" height="54" as="geometry" />
        </mxCell>
        <mxCell id="lORc25aRMC__WhGPj0ZI-186" value="&lt;font style=&quot;color: light-dark(rgb(221, 52, 76), rgb(237, 237, 237));&quot;&gt;&lt;b style=&quot;&quot;&gt;IAM&lt;/b&gt;&lt;/font&gt;" style="text;html=1;align=center;verticalAlign=middle;whiteSpace=wrap;rounded=0;" vertex="1" parent="lORc25aRMC__WhGPj0ZI-187">
          <mxGeometry y="54" width="54.5" height="26" as="geometry" />
        </mxCell>
        <mxCell id="lORc25aRMC__WhGPj0ZI-23" value="&lt;font style=&quot;color: light-dark(rgb(140, 79, 255), rgb(237, 237, 237)); font-size: 10px;&quot;&gt;&lt;b&gt;Application Load Balancer attached to AZ A and B&lt;/b&gt;&lt;/font&gt;" style="text;html=1;align=center;verticalAlign=middle;whiteSpace=wrap;rounded=0;movable=1;resizable=1;rotatable=1;deletable=1;editable=1;locked=0;connectable=1;" vertex="1" parent="1">
          <mxGeometry x="384.25" y="180" width="110.5" height="29" as="geometry" />
        </mxCell>
        <mxCell id="lORc25aRMC__WhGPj0ZI-190" value="" style="group" vertex="1" connectable="0" parent="1">
          <mxGeometry x="412.5" y="217.5" width="54" height="235" as="geometry" />
        </mxCell>
        <mxCell id="lORc25aRMC__WhGPj0ZI-189" value="" style="whiteSpace=wrap;html=1;strokeColor=none;fillColor=light-dark(#8b4eff, #ededed);" vertex="1" parent="lORc25aRMC__WhGPj0ZI-190">
          <mxGeometry width="54" height="235" as="geometry" />
        </mxCell>
        <mxCell id="lORc25aRMC__WhGPj0ZI-25" value="" style="sketch=0;points=[[0,0,0],[0.25,0,0],[0.5,0,0],[0.75,0,0],[1,0,0],[0,1,0],[0.25,1,0],[0.5,1,0],[0.75,1,0],[1,1,0],[0,0.25,0],[0,0.5,0],[0,0.75,0],[1,0.25,0],[1,0.5,0],[1,0.75,0]];outlineConnect=0;fontColor=#232F3E;fillColor=#8C4FFF;strokeColor=#ffffff;dashed=0;verticalLabelPosition=bottom;verticalAlign=top;align=center;html=1;fontSize=12;fontStyle=0;aspect=fixed;shape=mxgraph.aws4.resourceIcon;resIcon=mxgraph.aws4.elastic_load_balancing;movable=1;resizable=1;rotatable=1;deletable=1;editable=1;locked=0;connectable=1;" vertex="1" parent="lORc25aRMC__WhGPj0ZI-190">
          <mxGeometry y="90.5" width="54" height="54" as="geometry" />
        </mxCell>
        <mxCell id="lORc25aRMC__WhGPj0ZI-191" value="" style="endArrow=classic;html=1;rounded=0;" edge="1" parent="1">
          <mxGeometry width="50" height="50" relative="1" as="geometry">
            <mxPoint x="280" y="280" as="sourcePoint" />
            <mxPoint x="410" y="320" as="targetPoint" />
          </mxGeometry>
        </mxCell>
        <mxCell id="lORc25aRMC__WhGPj0ZI-198" style="edgeStyle=orthogonalEdgeStyle;rounded=0;orthogonalLoop=1;jettySize=auto;html=1;" edge="1" parent="1" source="lORc25aRMC__WhGPj0ZI-193">
          <mxGeometry relative="1" as="geometry">
            <mxPoint x="745" y="370" as="targetPoint" />
          </mxGeometry>
        </mxCell>
        <mxCell id="lORc25aRMC__WhGPj0ZI-193" value="Master" style="text;html=1;align=center;verticalAlign=middle;whiteSpace=wrap;rounded=0;" vertex="1" parent="1">
          <mxGeometry x="715" y="209" width="60" height="30" as="geometry" />
        </mxCell>
        <mxCell id="lORc25aRMC__WhGPj0ZI-194" value="Read replica" style="text;html=1;align=center;verticalAlign=middle;whiteSpace=wrap;rounded=0;" vertex="1" parent="1">
          <mxGeometry x="713" y="379" width="60" height="30" as="geometry" />
        </mxCell>
        <mxCell id="lORc25aRMC__WhGPj0ZI-195" value="&lt;font style=&quot;font-size: 9px;&quot;&gt;write &amp;amp; read&lt;/font&gt;" style="text;html=1;align=center;verticalAlign=middle;whiteSpace=wrap;rounded=0;" vertex="1" parent="1">
          <mxGeometry x="660" y="150" width="60" height="30" as="geometry" />
        </mxCell>
        <mxCell id="lORc25aRMC__WhGPj0ZI-196" value="&lt;font style=&quot;font-size: 9px;&quot;&gt;read&lt;/font&gt;" style="text;html=1;align=center;verticalAlign=middle;whiteSpace=wrap;rounded=0;" vertex="1" parent="1">
          <mxGeometry x="655" y="425" width="60" height="30" as="geometry" />
        </mxCell>
        <mxCell id="lORc25aRMC__WhGPj0ZI-199" value="replication" style="text;html=1;align=center;verticalAlign=middle;whiteSpace=wrap;rounded=0;strokeColor=default;fillColor=default;" vertex="1" parent="1">
          <mxGeometry x="750" y="287" width="60" height="20" as="geometry" />
        </mxCell>
      </root>
    </mxGraphModel>
  </diagram>
</mxfile>
